<svg width="21" height="20" viewBox="0 0 21 20" fill="none" xmlns="http://www.w3.org/2000/svg">
<g id="Frame" clip-path="url(#clip0_346_2358)">
<g id="Group">
<path id="Vector" d="M10.7041 8.18188V12.0546H16.1958C15.9546 13.3001 15.231 14.3547 14.1456 15.0638L17.4573 17.582C19.3868 15.8366 20.5 13.2729 20.5 10.2275C20.5 9.51837 20.4351 8.83648 20.3145 8.18199L10.7041 8.18188Z" fill="#4285F4"/>
<path id="Vector_2" d="M4.98548 11.9033L4.23857 12.4636L1.59473 14.4818C3.27377 17.7454 6.71509 20 10.7039 20C13.459 20 15.7688 19.1091 17.4572 17.5819L14.1455 15.0636C13.2364 15.6636 12.0768 16.0273 10.7039 16.0273C8.05089 16.0273 5.79677 14.2728 4.98965 11.9091L4.98548 11.9033Z" fill="#34A853"/>
<path id="Vector_3" d="M1.59455 5.51831C0.898847 6.86372 0.5 8.38193 0.5 10.0001C0.5 11.6183 0.898847 13.1365 1.59455 14.4819C1.59455 14.4909 4.9898 11.9 4.9898 11.9C4.78572 11.3 4.66509 10.6637 4.66509 9.99999C4.66509 9.33626 4.78572 8.69993 4.9898 8.09993L1.59455 5.51831Z" fill="#FBBC05"/>
<path id="Vector_4" d="M10.7042 3.98184C12.207 3.98184 13.5428 4.49092 14.6096 5.47275L17.5316 2.60914C15.7598 0.990976 13.4593 0 10.7042 0C6.7153 0 3.27377 2.24546 1.59473 5.51822L4.98988 8.10005C5.79688 5.73638 8.0511 3.98184 10.7042 3.98184Z" fill="#EA4335"/>
</g>
</g>
<defs>
<clipPath id="clip0_346_2358">
<rect width="20" height="20" fill="white" transform="translate(0.5)"/>
</clipPath>
</defs>
</svg>
