<svg width="34" height="34" viewBox="0 0 34 34" fill="none" xmlns="http://www.w3.org/2000/svg">
<g id="Group 3000">
<rect id="Rectangle 3861" width="34" height="34" rx="12" fill="#1A1D21"/>
<g id="Group 2999">
<path id="Vector" d="M10.4 27.22H22.82C25.79 27.22 28.22 24.79 28.22 21.82V18.31C28.22 17.815 27.815 17.41 27.32 17.41C26.825 17.41 26.42 17.815 26.42 18.31V21.82C26.42 23.8 24.8 25.42 22.82 25.42H10.4C8.42 25.42 6.8 23.8 6.8 21.82V9.4C6.8 7.42 8.42 5.8 10.4 5.8H13.91C14.405 5.8 14.81 5.395 14.81 4.9C14.81 4.405 14.405 4 13.91 4H10.4C7.43 4 5 6.43 5 9.4V21.82C5 24.79 7.43 27.22 10.4 27.22Z" fill="#B6F09C"/>
<path id="Vector_2" d="M22.5502 5.1701L13.3702 14.3501C13.2802 14.4401 13.1902 14.5751 13.1452 14.7551L11.8852 19.2551C11.7502 19.7501 12.0202 20.2451 12.5152 20.3801C12.6502 20.4251 12.8302 20.4251 13.0102 20.3801L17.5102 19.1201C17.6452 19.0751 17.7802 18.9851 17.9152 18.8951L27.1402 9.7151C28.4002 8.4551 28.4002 6.4301 27.1402 5.1701C25.8802 3.9101 23.7652 3.9101 22.5502 5.1701ZM14.0002 18.2201L14.4502 16.6901L15.5752 17.8151L14.0002 18.2201ZM25.7902 8.4101L17.2852 16.9151L15.3052 14.9351L23.8102 6.4301C24.3952 5.9351 25.2952 5.9801 25.7902 6.5651C26.2402 7.1051 26.2402 7.8701 25.7902 8.4101Z" fill="#B6F09C"/>
</g>
</g>
</svg>
