<svg width="30" height="30" viewBox="0 0 30 30" fill="none" xmlns="http://www.w3.org/2000/svg">
<g id="a" clip-path="url(#clip0_64_6663)">
<path id="Vector" d="M14.9997 30C12.9522 30 11.0097 29.6025 9.18719 28.815C7.36469 28.0275 5.76719 26.955 4.40219 25.59C3.03719 24.225 1.96469 22.635 1.17719 20.805C0.389688 18.975 -0.0078125 17.04 -0.0078125 14.9925C-0.0078125 12.945 0.389687 10.89 1.19219 9.0675C1.99469 7.245 3.08969 5.655 4.47719 4.305C5.86469 2.955 7.49219 1.905 9.35969 1.1475C11.2272 0.39 13.2147 0 15.3447 0C17.3172 0 19.1922 0.33 20.9697 0.9975C22.7472 1.665 24.2997 2.58 25.6422 3.7575C26.9847 4.935 28.0422 6.33 28.8297 7.9425C29.6172 9.555 30.0147 11.325 30.0147 13.2525C30.0147 15.9525 29.2272 18.0825 27.6522 19.65C26.0772 21.2175 23.9922 21.9975 21.3897 21.9975H18.5772C18.1272 21.9975 17.7372 22.17 17.4147 22.5225C17.0922 22.875 16.9272 23.2575 16.9272 23.685C16.9272 24.36 17.1072 24.9375 17.4747 25.41C17.8422 25.8825 18.0222 26.4375 18.0222 27.06C18.0222 28.0125 17.7597 28.74 17.2347 29.2575C16.7097 29.775 15.9747 30.03 15.0222 30.03L14.9997 30ZM6.26219 15.975C6.76469 15.975 7.19969 15.7875 7.57469 15.4125C7.94969 15.0375 8.13719 14.6025 8.13719 14.1C8.13719 13.5975 7.94969 13.1625 7.57469 12.7875C7.19969 12.4125 6.76469 12.225 6.26219 12.225C5.75969 12.225 5.32469 12.4125 4.94969 12.7875C4.57469 13.1625 4.38719 13.5975 4.38719 14.1C4.38719 14.6025 4.57469 15.0375 4.94969 15.4125C5.32469 15.7875 5.75969 15.975 6.26219 15.975ZM10.9872 9.6C11.4897 9.6 11.9247 9.4125 12.2997 9.0375C12.6747 8.6625 12.8622 8.2275 12.8622 7.725C12.8622 7.2225 12.6747 6.7875 12.2997 6.4125C11.9247 6.0375 11.4897 5.85 10.9872 5.85C10.4847 5.85 10.0497 6.0375 9.67469 6.4125C9.29969 6.7875 9.11219 7.2225 9.11219 7.725C9.11219 8.2275 9.29969 8.6625 9.67469 9.0375C10.0497 9.4125 10.4847 9.6 10.9872 9.6ZM19.0122 9.6C19.5147 9.6 19.9497 9.4125 20.3247 9.0375C20.6997 8.6625 20.8872 8.2275 20.8872 7.725C20.8872 7.2225 20.6997 6.7875 20.3247 6.4125C19.9497 6.0375 19.5147 5.85 19.0122 5.85C18.5097 5.85 18.0747 6.0375 17.6997 6.4125C17.3247 6.7875 17.1372 7.2225 17.1372 7.725C17.1372 8.2275 17.3247 8.6625 17.6997 9.0375C18.0747 9.4125 18.5097 9.6 19.0122 9.6ZM23.9247 15.975C24.4272 15.975 24.8622 15.7875 25.2372 15.4125C25.6122 15.0375 25.7997 14.6025 25.7997 14.1C25.7997 13.5975 25.6122 13.1625 25.2372 12.7875C24.8622 12.4125 24.4272 12.225 23.9247 12.225C23.4222 12.225 22.9872 12.4125 22.6122 12.7875C22.2372 13.1625 22.0497 13.5975 22.0497 14.1C22.0497 14.6025 22.2372 15.0375 22.6122 15.4125C22.9872 15.7875 23.4222 15.975 23.9247 15.975ZM14.9997 27.75C15.2772 27.75 15.4722 27.69 15.5847 27.5775C15.6972 27.465 15.7572 27.285 15.7572 27.03C15.7572 26.6775 15.5772 26.355 15.2097 26.055C14.8422 25.755 14.6622 25.095 14.6622 24.0675C14.6622 22.92 15.0372 21.9075 15.7872 21.03C16.5372 20.1525 17.4897 19.7175 18.6372 19.7175H21.3747C23.2722 19.7175 24.8097 19.1625 25.9872 18.045C27.1647 16.9275 27.7497 15.3225 27.7497 13.2225C27.7497 9.9225 26.4972 7.2675 23.9997 5.25C21.5022 3.2325 18.6147 2.2275 15.3372 2.2275C11.6847 2.2275 8.59469 3.4575 6.05219 5.925C3.51719 8.385 2.24219 11.4075 2.24219 14.985C2.24219 18.5625 3.48719 21.5175 5.97719 24.0075C8.46719 26.4975 11.4747 27.7425 14.9997 27.7425V27.75Z" fill="#FF0101"/>
</g>
<defs>
<clipPath id="clip0_64_6663">
<rect width="30" height="30" fill="white"/>
</clipPath>
</defs>
</svg>
