<svg width="46" height="46" viewBox="0 0 46 46" fill="none" xmlns="http://www.w3.org/2000/svg">
<g id="history_edu_FILL0_wght400_GRAD0_opsz48 1">
<path id="Vector" d="M15.3812 38.3334C14.6146 38.3334 13.9437 38.0459 13.3687 37.4709C12.7937 36.8959 12.5062 36.2251 12.5062 35.4584V30.6667H18.4479V24.5813C17.234 24.6772 16.0201 24.5095 14.8062 24.0782C13.5924 23.647 12.5062 22.9681 11.5479 22.0417V19.2626H9.15208L2.875 12.9855C4.025 11.8994 5.39861 11.0129 6.99583 10.3261C8.59306 9.63932 10.2222 9.29591 11.8833 9.29591C12.8417 9.29591 13.9358 9.44765 15.1656 9.75112C16.3955 10.0546 17.4896 10.5417 18.4479 11.2126V7.66675H40.25V33.3022C40.25 34.7077 39.7628 35.8977 38.7885 36.872C37.8142 37.8463 36.6243 38.3334 35.2188 38.3334H15.3812ZM21.3229 30.6667H33.0625V33.3022C33.0625 33.9411 33.2622 34.4602 33.6615 34.8595C34.0608 35.2588 34.5799 35.4584 35.2188 35.4584C35.8576 35.4584 36.3767 35.2588 36.776 34.8595C37.1753 34.4602 37.375 33.9411 37.375 33.3022V10.5417H21.3229V13.273L32.8708 24.8209V26.8813H30.8104L24.7729 20.8438L23.9583 21.8022C23.5431 22.2813 23.1278 22.6487 22.7125 22.9042C22.2972 23.1598 21.834 23.3994 21.3229 23.623V30.6667ZM10.4458 16.3876H14.4229V20.6522C14.966 21.0036 15.501 21.2671 16.0281 21.4428C16.5552 21.6185 17.0903 21.7063 17.6333 21.7063C18.4319 21.7063 19.2465 21.4907 20.0771 21.0595C20.9076 20.6282 21.5146 20.189 21.8979 19.7417L22.7125 18.7834L19.4062 15.4772C18.384 14.4549 17.234 13.6483 15.9563 13.0574C14.6785 12.4664 13.3208 12.1709 11.8833 12.1709C11.0208 12.1709 10.2382 12.2747 9.53542 12.4824C8.83264 12.69 8.11389 12.9695 7.37917 13.3209L10.4458 16.3876ZM30.1875 33.5417H15.3812V35.4584H30.8583C30.6667 35.2668 30.5069 35.0032 30.3792 34.6678C30.2514 34.3324 30.1875 33.957 30.1875 33.5417Z" fill="#D428FF"/>
</g>
</svg>
